<?xml version="1.0" encoding="utf-8" standalone="no"?>
<!DOCTYPE svg PUBLIC "-//W3C//DTD SVG 1.1//EN"
  "http://www.w3.org/Graphics/SVG/1.1/DTD/svg11.dtd">
<!-- Created with matplotlib (https://matplotlib.org/) -->
<svg height="345.6pt" version="1.1" viewBox="0 0 460.8 345.6" width="460.8pt" xmlns="http://www.w3.org/2000/svg" xmlns:xlink="http://www.w3.org/1999/xlink">
 <defs>
  <style type="text/css">
*{stroke-linecap:butt;stroke-linejoin:round;}
  </style>
 </defs>
 <g id="figure_1">
  <g id="patch_1">
   <path d="M 0 345.6 
L 460.8 345.6 
L 460.8 0 
L 0 0 
z
" style="fill:#ffffff;"/>
  </g>
  <g id="axes_1">
   <g id="patch_2">
    <path d="M 57.6 307.584 
L 414.72 307.584 
L 414.72 41.472 
L 57.6 41.472 
z
" style="fill:#ffffff;"/>
   </g>
   <g id="matplotlib.axis_1">
    <g id="xtick_1">
     <g id="line2d_1">
      <path clip-path="url(#pa60b588aed)" d="M 57.6 307.584 
L 57.6 41.472 
" style="fill:none;stroke:#b0b0b0;stroke-linecap:square;stroke-width:0.8;"/>
     </g>
     <g id="line2d_2">
      <defs>
       <path d="M 0 0 
L 0 3.5 
" id="md699b6d933" style="stroke:#000000;stroke-width:0.8;"/>
      </defs>
      <g>
       <use style="stroke:#000000;stroke-width:0.8;" x="57.6" xlink:href="#md699b6d933" y="307.584"/>
      </g>
     </g>
     <g id="text_1">
      <!-- 0 -->
      <defs>
       <path d="M 31.78125 66.40625 
Q 24.171875 66.40625 20.328125 58.90625 
Q 16.5 51.421875 16.5 36.375 
Q 16.5 21.390625 20.328125 13.890625 
Q 24.171875 6.390625 31.78125 6.390625 
Q 39.453125 6.390625 43.28125 13.890625 
Q 47.125 21.390625 47.125 36.375 
Q 47.125 51.421875 43.28125 58.90625 
Q 39.453125 66.40625 31.78125 66.40625 
z
M 31.78125 74.21875 
Q 44.046875 74.21875 50.515625 64.515625 
Q 56.984375 54.828125 56.984375 36.375 
Q 56.984375 17.96875 50.515625 8.265625 
Q 44.046875 -1.421875 31.78125 -1.421875 
Q 19.53125 -1.421875 13.0625 8.265625 
Q 6.59375 17.96875 6.59375 36.375 
Q 6.59375 54.828125 13.0625 64.515625 
Q 19.53125 74.21875 31.78125 74.21875 
z
" id="DejaVuSans-48"/>
      </defs>
      <g transform="translate(54.41875 322.182437)scale(0.1 -0.1)">
       <use xlink:href="#DejaVuSans-48"/>
      </g>
     </g>
    </g>
    <g id="xtick_2">
     <g id="line2d_3">
      <path clip-path="url(#pa60b588aed)" d="M 129.024 307.584 
L 129.024 41.472 
" style="fill:none;stroke:#b0b0b0;stroke-linecap:square;stroke-width:0.8;"/>
     </g>
     <g id="line2d_4">
      <g>
       <use style="stroke:#000000;stroke-width:0.8;" x="129.024" xlink:href="#md699b6d933" y="307.584"/>
      </g>
     </g>
     <g id="text_2">
      <!-- 5 -->
      <defs>
       <path d="M 10.796875 72.90625 
L 49.515625 72.90625 
L 49.515625 64.59375 
L 19.828125 64.59375 
L 19.828125 46.734375 
Q 21.96875 47.46875 24.109375 47.828125 
Q 26.265625 48.1875 28.421875 48.1875 
Q 40.625 48.1875 47.75 41.5 
Q 54.890625 34.8125 54.890625 23.390625 
Q 54.890625 11.625 47.5625 5.09375 
Q 40.234375 -1.421875 26.90625 -1.421875 
Q 22.3125 -1.421875 17.546875 -0.640625 
Q 12.796875 0.140625 7.71875 1.703125 
L 7.71875 11.625 
Q 12.109375 9.234375 16.796875 8.0625 
Q 21.484375 6.890625 26.703125 6.890625 
Q 35.15625 6.890625 40.078125 11.328125 
Q 45.015625 15.765625 45.015625 23.390625 
Q 45.015625 31 40.078125 35.4375 
Q 35.15625 39.890625 26.703125 39.890625 
Q 22.75 39.890625 18.8125 39.015625 
Q 14.890625 38.140625 10.796875 36.28125 
z
" id="DejaVuSans-53"/>
      </defs>
      <g transform="translate(125.84275 322.182437)scale(0.1 -0.1)">
       <use xlink:href="#DejaVuSans-53"/>
      </g>
     </g>
    </g>
    <g id="xtick_3">
     <g id="line2d_5">
      <path clip-path="url(#pa60b588aed)" d="M 200.448 307.584 
L 200.448 41.472 
" style="fill:none;stroke:#b0b0b0;stroke-linecap:square;stroke-width:0.8;"/>
     </g>
     <g id="line2d_6">
      <g>
       <use style="stroke:#000000;stroke-width:0.8;" x="200.448" xlink:href="#md699b6d933" y="307.584"/>
      </g>
     </g>
     <g id="text_3">
      <!-- 10 -->
      <defs>
       <path d="M 12.40625 8.296875 
L 28.515625 8.296875 
L 28.515625 63.921875 
L 10.984375 60.40625 
L 10.984375 69.390625 
L 28.421875 72.90625 
L 38.28125 72.90625 
L 38.28125 8.296875 
L 54.390625 8.296875 
L 54.390625 0 
L 12.40625 0 
z
" id="DejaVuSans-49"/>
      </defs>
      <g transform="translate(194.0855 322.182437)scale(0.1 -0.1)">
       <use xlink:href="#DejaVuSans-49"/>
       <use x="63.623047" xlink:href="#DejaVuSans-48"/>
      </g>
     </g>
    </g>
    <g id="xtick_4">
     <g id="line2d_7">
      <path clip-path="url(#pa60b588aed)" d="M 271.872 307.584 
L 271.872 41.472 
" style="fill:none;stroke:#b0b0b0;stroke-linecap:square;stroke-width:0.8;"/>
     </g>
     <g id="line2d_8">
      <g>
       <use style="stroke:#000000;stroke-width:0.8;" x="271.872" xlink:href="#md699b6d933" y="307.584"/>
      </g>
     </g>
     <g id="text_4">
      <!-- 15 -->
      <g transform="translate(265.5095 322.182437)scale(0.1 -0.1)">
       <use xlink:href="#DejaVuSans-49"/>
       <use x="63.623047" xlink:href="#DejaVuSans-53"/>
      </g>
     </g>
    </g>
    <g id="xtick_5">
     <g id="line2d_9">
      <path clip-path="url(#pa60b588aed)" d="M 343.296 307.584 
L 343.296 41.472 
" style="fill:none;stroke:#b0b0b0;stroke-linecap:square;stroke-width:0.8;"/>
     </g>
     <g id="line2d_10">
      <g>
       <use style="stroke:#000000;stroke-width:0.8;" x="343.296" xlink:href="#md699b6d933" y="307.584"/>
      </g>
     </g>
     <g id="text_5">
      <!-- 20 -->
      <defs>
       <path d="M 19.1875 8.296875 
L 53.609375 8.296875 
L 53.609375 0 
L 7.328125 0 
L 7.328125 8.296875 
Q 12.9375 14.109375 22.625 23.890625 
Q 32.328125 33.6875 34.8125 36.53125 
Q 39.546875 41.84375 41.421875 45.53125 
Q 43.3125 49.21875 43.3125 52.78125 
Q 43.3125 58.59375 39.234375 62.25 
Q 35.15625 65.921875 28.609375 65.921875 
Q 23.96875 65.921875 18.8125 64.3125 
Q 13.671875 62.703125 7.8125 59.421875 
L 7.8125 69.390625 
Q 13.765625 71.78125 18.9375 73 
Q 24.125 74.21875 28.421875 74.21875 
Q 39.75 74.21875 46.484375 68.546875 
Q 53.21875 62.890625 53.21875 53.421875 
Q 53.21875 48.921875 51.53125 44.890625 
Q 49.859375 40.875 45.40625 35.40625 
Q 44.1875 33.984375 37.640625 27.21875 
Q 31.109375 20.453125 19.1875 8.296875 
z
" id="DejaVuSans-50"/>
      </defs>
      <g transform="translate(336.9335 322.182437)scale(0.1 -0.1)">
       <use xlink:href="#DejaVuSans-50"/>
       <use x="63.623047" xlink:href="#DejaVuSans-48"/>
      </g>
     </g>
    </g>
    <g id="xtick_6">
     <g id="line2d_11">
      <path clip-path="url(#pa60b588aed)" d="M 414.72 307.584 
L 414.72 41.472 
" style="fill:none;stroke:#b0b0b0;stroke-linecap:square;stroke-width:0.8;"/>
     </g>
     <g id="line2d_12">
      <g>
       <use style="stroke:#000000;stroke-width:0.8;" x="414.72" xlink:href="#md699b6d933" y="307.584"/>
      </g>
     </g>
     <g id="text_6">
      <!-- 25 -->
      <g transform="translate(408.3575 322.182437)scale(0.1 -0.1)">
       <use xlink:href="#DejaVuSans-50"/>
       <use x="63.623047" xlink:href="#DejaVuSans-53"/>
      </g>
     </g>
    </g>
    <g id="text_7">
     <!-- Wind speed m/s -->
     <defs>
      <path d="M 3.328125 72.90625 
L 13.28125 72.90625 
L 28.609375 11.28125 
L 43.890625 72.90625 
L 54.984375 72.90625 
L 70.3125 11.28125 
L 85.59375 72.90625 
L 95.609375 72.90625 
L 77.296875 0 
L 64.890625 0 
L 49.515625 63.28125 
L 33.984375 0 
L 21.578125 0 
z
" id="DejaVuSans-87"/>
      <path d="M 9.421875 54.6875 
L 18.40625 54.6875 
L 18.40625 0 
L 9.421875 0 
z
M 9.421875 75.984375 
L 18.40625 75.984375 
L 18.40625 64.59375 
L 9.421875 64.59375 
z
" id="DejaVuSans-105"/>
      <path d="M 54.890625 33.015625 
L 54.890625 0 
L 45.90625 0 
L 45.90625 32.71875 
Q 45.90625 40.484375 42.875 44.328125 
Q 39.84375 48.1875 33.796875 48.1875 
Q 26.515625 48.1875 22.3125 43.546875 
Q 18.109375 38.921875 18.109375 30.90625 
L 18.109375 0 
L 9.078125 0 
L 9.078125 54.6875 
L 18.109375 54.6875 
L 18.109375 46.1875 
Q 21.34375 51.125 25.703125 53.5625 
Q 30.078125 56 35.796875 56 
Q 45.21875 56 50.046875 50.171875 
Q 54.890625 44.34375 54.890625 33.015625 
z
" id="DejaVuSans-110"/>
      <path d="M 45.40625 46.390625 
L 45.40625 75.984375 
L 54.390625 75.984375 
L 54.390625 0 
L 45.40625 0 
L 45.40625 8.203125 
Q 42.578125 3.328125 38.25 0.953125 
Q 33.9375 -1.421875 27.875 -1.421875 
Q 17.96875 -1.421875 11.734375 6.484375 
Q 5.515625 14.40625 5.515625 27.296875 
Q 5.515625 40.1875 11.734375 48.09375 
Q 17.96875 56 27.875 56 
Q 33.9375 56 38.25 53.625 
Q 42.578125 51.265625 45.40625 46.390625 
z
M 14.796875 27.296875 
Q 14.796875 17.390625 18.875 11.75 
Q 22.953125 6.109375 30.078125 6.109375 
Q 37.203125 6.109375 41.296875 11.75 
Q 45.40625 17.390625 45.40625 27.296875 
Q 45.40625 37.203125 41.296875 42.84375 
Q 37.203125 48.484375 30.078125 48.484375 
Q 22.953125 48.484375 18.875 42.84375 
Q 14.796875 37.203125 14.796875 27.296875 
z
" id="DejaVuSans-100"/>
      <path id="DejaVuSans-32"/>
      <path d="M 44.28125 53.078125 
L 44.28125 44.578125 
Q 40.484375 46.53125 36.375 47.5 
Q 32.28125 48.484375 27.875 48.484375 
Q 21.1875 48.484375 17.84375 46.4375 
Q 14.5 44.390625 14.5 40.28125 
Q 14.5 37.15625 16.890625 35.375 
Q 19.28125 33.59375 26.515625 31.984375 
L 29.59375 31.296875 
Q 39.15625 29.25 43.1875 25.515625 
Q 47.21875 21.78125 47.21875 15.09375 
Q 47.21875 7.46875 41.1875 3.015625 
Q 35.15625 -1.421875 24.609375 -1.421875 
Q 20.21875 -1.421875 15.453125 -0.5625 
Q 10.6875 0.296875 5.421875 2 
L 5.421875 11.28125 
Q 10.40625 8.6875 15.234375 7.390625 
Q 20.0625 6.109375 24.8125 6.109375 
Q 31.15625 6.109375 34.5625 8.28125 
Q 37.984375 10.453125 37.984375 14.40625 
Q 37.984375 18.0625 35.515625 20.015625 
Q 33.0625 21.96875 24.703125 23.78125 
L 21.578125 24.515625 
Q 13.234375 26.265625 9.515625 29.90625 
Q 5.8125 33.546875 5.8125 39.890625 
Q 5.8125 47.609375 11.28125 51.796875 
Q 16.75 56 26.8125 56 
Q 31.78125 56 36.171875 55.265625 
Q 40.578125 54.546875 44.28125 53.078125 
z
" id="DejaVuSans-115"/>
      <path d="M 18.109375 8.203125 
L 18.109375 -20.796875 
L 9.078125 -20.796875 
L 9.078125 54.6875 
L 18.109375 54.6875 
L 18.109375 46.390625 
Q 20.953125 51.265625 25.265625 53.625 
Q 29.59375 56 35.59375 56 
Q 45.5625 56 51.78125 48.09375 
Q 58.015625 40.1875 58.015625 27.296875 
Q 58.015625 14.40625 51.78125 6.484375 
Q 45.5625 -1.421875 35.59375 -1.421875 
Q 29.59375 -1.421875 25.265625 0.953125 
Q 20.953125 3.328125 18.109375 8.203125 
z
M 48.6875 27.296875 
Q 48.6875 37.203125 44.609375 42.84375 
Q 40.53125 48.484375 33.40625 48.484375 
Q 26.265625 48.484375 22.1875 42.84375 
Q 18.109375 37.203125 18.109375 27.296875 
Q 18.109375 17.390625 22.1875 11.75 
Q 26.265625 6.109375 33.40625 6.109375 
Q 40.53125 6.109375 44.609375 11.75 
Q 48.6875 17.390625 48.6875 27.296875 
z
" id="DejaVuSans-112"/>
      <path d="M 56.203125 29.59375 
L 56.203125 25.203125 
L 14.890625 25.203125 
Q 15.484375 15.921875 20.484375 11.0625 
Q 25.484375 6.203125 34.421875 6.203125 
Q 39.59375 6.203125 44.453125 7.46875 
Q 49.3125 8.734375 54.109375 11.28125 
L 54.109375 2.78125 
Q 49.265625 0.734375 44.1875 -0.34375 
Q 39.109375 -1.421875 33.890625 -1.421875 
Q 20.796875 -1.421875 13.15625 6.1875 
Q 5.515625 13.8125 5.515625 26.8125 
Q 5.515625 40.234375 12.765625 48.109375 
Q 20.015625 56 32.328125 56 
Q 43.359375 56 49.78125 48.890625 
Q 56.203125 41.796875 56.203125 29.59375 
z
M 47.21875 32.234375 
Q 47.125 39.59375 43.09375 43.984375 
Q 39.0625 48.390625 32.421875 48.390625 
Q 24.90625 48.390625 20.390625 44.140625 
Q 15.875 39.890625 15.1875 32.171875 
z
" id="DejaVuSans-101"/>
      <path d="M 52 44.1875 
Q 55.375 50.25 60.0625 53.125 
Q 64.75 56 71.09375 56 
Q 79.640625 56 84.28125 50.015625 
Q 88.921875 44.046875 88.921875 33.015625 
L 88.921875 0 
L 79.890625 0 
L 79.890625 32.71875 
Q 79.890625 40.578125 77.09375 44.375 
Q 74.3125 48.1875 68.609375 48.1875 
Q 61.625 48.1875 57.5625 43.546875 
Q 53.515625 38.921875 53.515625 30.90625 
L 53.515625 0 
L 44.484375 0 
L 44.484375 32.71875 
Q 44.484375 40.625 41.703125 44.40625 
Q 38.921875 48.1875 33.109375 48.1875 
Q 26.21875 48.1875 22.15625 43.53125 
Q 18.109375 38.875 18.109375 30.90625 
L 18.109375 0 
L 9.078125 0 
L 9.078125 54.6875 
L 18.109375 54.6875 
L 18.109375 46.1875 
Q 21.1875 51.21875 25.484375 53.609375 
Q 29.78125 56 35.6875 56 
Q 41.65625 56 45.828125 52.96875 
Q 50 49.953125 52 44.1875 
z
" id="DejaVuSans-109"/>
      <path d="M 25.390625 72.90625 
L 33.6875 72.90625 
L 8.296875 -9.28125 
L 0 -9.28125 
z
" id="DejaVuSans-47"/>
     </defs>
     <g transform="translate(196.042031 335.860562)scale(0.1 -0.1)">
      <use xlink:href="#DejaVuSans-87"/>
      <use x="98.845703" xlink:href="#DejaVuSans-105"/>
      <use x="126.628906" xlink:href="#DejaVuSans-110"/>
      <use x="190.007812" xlink:href="#DejaVuSans-100"/>
      <use x="253.484375" xlink:href="#DejaVuSans-32"/>
      <use x="285.271484" xlink:href="#DejaVuSans-115"/>
      <use x="337.371094" xlink:href="#DejaVuSans-112"/>
      <use x="400.847656" xlink:href="#DejaVuSans-101"/>
      <use x="462.371094" xlink:href="#DejaVuSans-101"/>
      <use x="523.894531" xlink:href="#DejaVuSans-100"/>
      <use x="587.371094" xlink:href="#DejaVuSans-32"/>
      <use x="619.158203" xlink:href="#DejaVuSans-109"/>
      <use x="716.570312" xlink:href="#DejaVuSans-47"/>
      <use x="750.261719" xlink:href="#DejaVuSans-115"/>
     </g>
    </g>
   </g>
   <g id="matplotlib.axis_2">
    <g id="ytick_1">
     <g id="line2d_13">
      <path clip-path="url(#pa60b588aed)" d="M 57.6 281.461891 
L 414.72 281.461891 
" style="fill:none;stroke:#b0b0b0;stroke-linecap:square;stroke-width:0.8;"/>
     </g>
     <g id="line2d_14">
      <defs>
       <path d="M 0 0 
L -3.5 0 
" id="ma3986e8164" style="stroke:#000000;stroke-width:0.8;"/>
      </defs>
      <g>
       <use style="stroke:#000000;stroke-width:0.8;" x="57.6" xlink:href="#ma3986e8164" y="281.461891"/>
      </g>
     </g>
     <g id="text_8">
      <!-- 0.70 -->
      <defs>
       <path d="M 10.6875 12.40625 
L 21 12.40625 
L 21 0 
L 10.6875 0 
z
" id="DejaVuSans-46"/>
       <path d="M 8.203125 72.90625 
L 55.078125 72.90625 
L 55.078125 68.703125 
L 28.609375 0 
L 18.3125 0 
L 43.21875 64.59375 
L 8.203125 64.59375 
z
" id="DejaVuSans-55"/>
      </defs>
      <g transform="translate(28.334375 285.261109)scale(0.1 -0.1)">
       <use xlink:href="#DejaVuSans-48"/>
       <use x="63.623047" xlink:href="#DejaVuSans-46"/>
       <use x="95.410156" xlink:href="#DejaVuSans-55"/>
       <use x="159.033203" xlink:href="#DejaVuSans-48"/>
      </g>
     </g>
    </g>
    <g id="ytick_2">
     <g id="line2d_15">
      <path clip-path="url(#pa60b588aed)" d="M 57.6 243.479576 
L 414.72 243.479576 
" style="fill:none;stroke:#b0b0b0;stroke-linecap:square;stroke-width:0.8;"/>
     </g>
     <g id="line2d_16">
      <g>
       <use style="stroke:#000000;stroke-width:0.8;" x="57.6" xlink:href="#ma3986e8164" y="243.479576"/>
      </g>
     </g>
     <g id="text_9">
      <!-- 0.75 -->
      <g transform="translate(28.334375 247.278794)scale(0.1 -0.1)">
       <use xlink:href="#DejaVuSans-48"/>
       <use x="63.623047" xlink:href="#DejaVuSans-46"/>
       <use x="95.410156" xlink:href="#DejaVuSans-55"/>
       <use x="159.033203" xlink:href="#DejaVuSans-53"/>
      </g>
     </g>
    </g>
    <g id="ytick_3">
     <g id="line2d_17">
      <path clip-path="url(#pa60b588aed)" d="M 57.6 205.49726 
L 414.72 205.49726 
" style="fill:none;stroke:#b0b0b0;stroke-linecap:square;stroke-width:0.8;"/>
     </g>
     <g id="line2d_18">
      <g>
       <use style="stroke:#000000;stroke-width:0.8;" x="57.6" xlink:href="#ma3986e8164" y="205.49726"/>
      </g>
     </g>
     <g id="text_10">
      <!-- 0.80 -->
      <defs>
       <path d="M 31.78125 34.625 
Q 24.75 34.625 20.71875 30.859375 
Q 16.703125 27.09375 16.703125 20.515625 
Q 16.703125 13.921875 20.71875 10.15625 
Q 24.75 6.390625 31.78125 6.390625 
Q 38.8125 6.390625 42.859375 10.171875 
Q 46.921875 13.96875 46.921875 20.515625 
Q 46.921875 27.09375 42.890625 30.859375 
Q 38.875 34.625 31.78125 34.625 
z
M 21.921875 38.8125 
Q 15.578125 40.375 12.03125 44.71875 
Q 8.5 49.078125 8.5 55.328125 
Q 8.5 64.0625 14.71875 69.140625 
Q 20.953125 74.21875 31.78125 74.21875 
Q 42.671875 74.21875 48.875 69.140625 
Q 55.078125 64.0625 55.078125 55.328125 
Q 55.078125 49.078125 51.53125 44.71875 
Q 48 40.375 41.703125 38.8125 
Q 48.828125 37.15625 52.796875 32.3125 
Q 56.78125 27.484375 56.78125 20.515625 
Q 56.78125 9.90625 50.3125 4.234375 
Q 43.84375 -1.421875 31.78125 -1.421875 
Q 19.734375 -1.421875 13.25 4.234375 
Q 6.78125 9.90625 6.78125 20.515625 
Q 6.78125 27.484375 10.78125 32.3125 
Q 14.796875 37.15625 21.921875 38.8125 
z
M 18.3125 54.390625 
Q 18.3125 48.734375 21.84375 45.5625 
Q 25.390625 42.390625 31.78125 42.390625 
Q 38.140625 42.390625 41.71875 45.5625 
Q 45.3125 48.734375 45.3125 54.390625 
Q 45.3125 60.0625 41.71875 63.234375 
Q 38.140625 66.40625 31.78125 66.40625 
Q 25.390625 66.40625 21.84375 63.234375 
Q 18.3125 60.0625 18.3125 54.390625 
z
" id="DejaVuSans-56"/>
      </defs>
      <g transform="translate(28.334375 209.296479)scale(0.1 -0.1)">
       <use xlink:href="#DejaVuSans-48"/>
       <use x="63.623047" xlink:href="#DejaVuSans-46"/>
       <use x="95.410156" xlink:href="#DejaVuSans-56"/>
       <use x="159.033203" xlink:href="#DejaVuSans-48"/>
      </g>
     </g>
    </g>
    <g id="ytick_4">
     <g id="line2d_19">
      <path clip-path="url(#pa60b588aed)" d="M 57.6 167.514945 
L 414.72 167.514945 
" style="fill:none;stroke:#b0b0b0;stroke-linecap:square;stroke-width:0.8;"/>
     </g>
     <g id="line2d_20">
      <g>
       <use style="stroke:#000000;stroke-width:0.8;" x="57.6" xlink:href="#ma3986e8164" y="167.514945"/>
      </g>
     </g>
     <g id="text_11">
      <!-- 0.85 -->
      <g transform="translate(28.334375 171.314164)scale(0.1 -0.1)">
       <use xlink:href="#DejaVuSans-48"/>
       <use x="63.623047" xlink:href="#DejaVuSans-46"/>
       <use x="95.410156" xlink:href="#DejaVuSans-56"/>
       <use x="159.033203" xlink:href="#DejaVuSans-53"/>
      </g>
     </g>
    </g>
    <g id="ytick_5">
     <g id="line2d_21">
      <path clip-path="url(#pa60b588aed)" d="M 57.6 129.53263 
L 414.72 129.53263 
" style="fill:none;stroke:#b0b0b0;stroke-linecap:square;stroke-width:0.8;"/>
     </g>
     <g id="line2d_22">
      <g>
       <use style="stroke:#000000;stroke-width:0.8;" x="57.6" xlink:href="#ma3986e8164" y="129.53263"/>
      </g>
     </g>
     <g id="text_12">
      <!-- 0.90 -->
      <defs>
       <path d="M 10.984375 1.515625 
L 10.984375 10.5 
Q 14.703125 8.734375 18.5 7.8125 
Q 22.3125 6.890625 25.984375 6.890625 
Q 35.75 6.890625 40.890625 13.453125 
Q 46.046875 20.015625 46.78125 33.40625 
Q 43.953125 29.203125 39.59375 26.953125 
Q 35.25 24.703125 29.984375 24.703125 
Q 19.046875 24.703125 12.671875 31.3125 
Q 6.296875 37.9375 6.296875 49.421875 
Q 6.296875 60.640625 12.9375 67.421875 
Q 19.578125 74.21875 30.609375 74.21875 
Q 43.265625 74.21875 49.921875 64.515625 
Q 56.59375 54.828125 56.59375 36.375 
Q 56.59375 19.140625 48.40625 8.859375 
Q 40.234375 -1.421875 26.421875 -1.421875 
Q 22.703125 -1.421875 18.890625 -0.6875 
Q 15.09375 0.046875 10.984375 1.515625 
z
M 30.609375 32.421875 
Q 37.25 32.421875 41.125 36.953125 
Q 45.015625 41.5 45.015625 49.421875 
Q 45.015625 57.28125 41.125 61.84375 
Q 37.25 66.40625 30.609375 66.40625 
Q 23.96875 66.40625 20.09375 61.84375 
Q 16.21875 57.28125 16.21875 49.421875 
Q 16.21875 41.5 20.09375 36.953125 
Q 23.96875 32.421875 30.609375 32.421875 
z
" id="DejaVuSans-57"/>
      </defs>
      <g transform="translate(28.334375 133.331849)scale(0.1 -0.1)">
       <use xlink:href="#DejaVuSans-48"/>
       <use x="63.623047" xlink:href="#DejaVuSans-46"/>
       <use x="95.410156" xlink:href="#DejaVuSans-57"/>
       <use x="159.033203" xlink:href="#DejaVuSans-48"/>
      </g>
     </g>
    </g>
    <g id="ytick_6">
     <g id="line2d_23">
      <path clip-path="url(#pa60b588aed)" d="M 57.6 91.550315 
L 414.72 91.550315 
" style="fill:none;stroke:#b0b0b0;stroke-linecap:square;stroke-width:0.8;"/>
     </g>
     <g id="line2d_24">
      <g>
       <use style="stroke:#000000;stroke-width:0.8;" x="57.6" xlink:href="#ma3986e8164" y="91.550315"/>
      </g>
     </g>
     <g id="text_13">
      <!-- 0.95 -->
      <g transform="translate(28.334375 95.349534)scale(0.1 -0.1)">
       <use xlink:href="#DejaVuSans-48"/>
       <use x="63.623047" xlink:href="#DejaVuSans-46"/>
       <use x="95.410156" xlink:href="#DejaVuSans-57"/>
       <use x="159.033203" xlink:href="#DejaVuSans-53"/>
      </g>
     </g>
    </g>
    <g id="ytick_7">
     <g id="line2d_25">
      <path clip-path="url(#pa60b588aed)" d="M 57.6 53.568 
L 414.72 53.568 
" style="fill:none;stroke:#b0b0b0;stroke-linecap:square;stroke-width:0.8;"/>
     </g>
     <g id="line2d_26">
      <g>
       <use style="stroke:#000000;stroke-width:0.8;" x="57.6" xlink:href="#ma3986e8164" y="53.568"/>
      </g>
     </g>
     <g id="text_14">
      <!-- 1.00 -->
      <g transform="translate(28.334375 57.367219)scale(0.1 -0.1)">
       <use xlink:href="#DejaVuSans-49"/>
       <use x="63.623047" xlink:href="#DejaVuSans-46"/>
       <use x="95.410156" xlink:href="#DejaVuSans-48"/>
       <use x="159.033203" xlink:href="#DejaVuSans-48"/>
      </g>
     </g>
    </g>
    <g id="text_15">
     <!-- Wind efficiency -->
     <defs>
      <path d="M 37.109375 75.984375 
L 37.109375 68.5 
L 28.515625 68.5 
Q 23.6875 68.5 21.796875 66.546875 
Q 19.921875 64.59375 19.921875 59.515625 
L 19.921875 54.6875 
L 34.71875 54.6875 
L 34.71875 47.703125 
L 19.921875 47.703125 
L 19.921875 0 
L 10.890625 0 
L 10.890625 47.703125 
L 2.296875 47.703125 
L 2.296875 54.6875 
L 10.890625 54.6875 
L 10.890625 58.5 
Q 10.890625 67.625 15.140625 71.796875 
Q 19.390625 75.984375 28.609375 75.984375 
z
" id="DejaVuSans-102"/>
      <path d="M 48.78125 52.59375 
L 48.78125 44.1875 
Q 44.96875 46.296875 41.140625 47.34375 
Q 37.3125 48.390625 33.40625 48.390625 
Q 24.65625 48.390625 19.8125 42.84375 
Q 14.984375 37.3125 14.984375 27.296875 
Q 14.984375 17.28125 19.8125 11.734375 
Q 24.65625 6.203125 33.40625 6.203125 
Q 37.3125 6.203125 41.140625 7.25 
Q 44.96875 8.296875 48.78125 10.40625 
L 48.78125 2.09375 
Q 45.015625 0.34375 40.984375 -0.53125 
Q 36.96875 -1.421875 32.421875 -1.421875 
Q 20.0625 -1.421875 12.78125 6.34375 
Q 5.515625 14.109375 5.515625 27.296875 
Q 5.515625 40.671875 12.859375 48.328125 
Q 20.21875 56 33.015625 56 
Q 37.15625 56 41.109375 55.140625 
Q 45.0625 54.296875 48.78125 52.59375 
z
" id="DejaVuSans-99"/>
      <path d="M 32.171875 -5.078125 
Q 28.375 -14.84375 24.75 -17.8125 
Q 21.140625 -20.796875 15.09375 -20.796875 
L 7.90625 -20.796875 
L 7.90625 -13.28125 
L 13.1875 -13.28125 
Q 16.890625 -13.28125 18.9375 -11.515625 
Q 21 -9.765625 23.484375 -3.21875 
L 25.09375 0.875 
L 2.984375 54.6875 
L 12.5 54.6875 
L 29.59375 11.921875 
L 46.6875 54.6875 
L 56.203125 54.6875 
z
" id="DejaVuSans-121"/>
     </defs>
     <g transform="translate(22.254687 212.869406)rotate(-90)scale(0.1 -0.1)">
      <use xlink:href="#DejaVuSans-87"/>
      <use x="98.845703" xlink:href="#DejaVuSans-105"/>
      <use x="126.628906" xlink:href="#DejaVuSans-110"/>
      <use x="190.007812" xlink:href="#DejaVuSans-100"/>
      <use x="253.484375" xlink:href="#DejaVuSans-32"/>
      <use x="285.271484" xlink:href="#DejaVuSans-101"/>
      <use x="346.794922" xlink:href="#DejaVuSans-102"/>
      <use x="382" xlink:href="#DejaVuSans-102"/>
      <use x="417.205078" xlink:href="#DejaVuSans-105"/>
      <use x="444.988281" xlink:href="#DejaVuSans-99"/>
      <use x="499.96875" xlink:href="#DejaVuSans-105"/>
      <use x="527.751953" xlink:href="#DejaVuSans-101"/>
      <use x="589.275391" xlink:href="#DejaVuSans-110"/>
      <use x="652.654297" xlink:href="#DejaVuSans-99"/>
      <use x="707.634766" xlink:href="#DejaVuSans-121"/>
     </g>
    </g>
   </g>
   <g id="line2d_27">
    <path clip-path="url(#pa60b588aed)" d="M 57.6 53.568 
L 70.796298 57.396617 
L 100.48297 57.534113 
L 101.312916 59.509194 
L 101.842883 61.119644 
L 102.748539 63.065098 
L 103.882752 65.10171 
L 105.468365 67.623736 
L 106.072612 70.207293 
L 109.548104 77.227184 
L 111.058007 81.603506 
L 111.813673 83.213957 
L 113.022167 85.037867 
L 114.004961 89.231115 
L 115.514865 90.862076 
L 117.630444 92.271979 
L 126.468449 96.255564 
L 130.093932 97.139033 
L 133.190876 98.020982 
L 136.666368 98.782148 
L 144.29588 98.815572 
L 146.788577 98.482847 
L 152.982467 97.421621 
L 160.15915 95.540737 
L 164.464589 94.034359 
L 165.748792 93.659093 
L 171.716982 92.311481 
L 173.075466 91.960524 
L 176.24812 90.898539 
L 178.666537 89.902642 
L 193.774141 85.618997 
L 193.774141 85.618997 
L 198.910956 83.899158 
L 207.069005 81.698462 
L 211.978691 80.582542 
L 221.572362 78.019495 
L 228.824755 76.323965 
L 235.471473 74.553229 
L 242.421028 72.79085 
L 245.82081 72.119322 
L 250.579077 70.980613 
L 257.227223 69.444608 
L 259.039964 68.873354 
L 265.082435 67.781742 
L 271.427743 66.715199 
L 276.564557 65.477735 
L 282.759875 64.873056 
L 291.82358 63.539877 
L 299.528801 62.793904 
L 305.421281 62.48169 
L 314.636406 61.272333 
L 319.244682 60.755773 
L 324.985743 59.633776 
L 343.71883 58.669785 
L 371.139932 58.601416 
L 392.895683 58.374282 
L 400.750894 57.940524 
L 404.982052 56.994005 
L 408.003287 55.961645 
L 414.72 54.840408 
L 414.72 54.840408 
" style="fill:none;stroke:#1f77b4;stroke-dasharray:5.55,2.4;stroke-dashoffset:0;stroke-width:1.5;"/>
   </g>
   <g id="line2d_28">
    <path clip-path="url(#pa60b588aed)" d="M 57.6 53.568 
L 70.796298 60.620556 
L 78.3501 60.623595 
L 78.802929 60.610681 
L 93.156296 60.630432 
L 99.803013 60.094121 
L 100.48297 61.146232 
L 101.312916 62.970902 
L 101.842883 64.417268 
L 102.748539 67.320637 
L 103.882752 71.494893 
L 108.491028 89.427863 
L 111.058007 98.361304 
L 113.399286 105.604531 
L 115.212027 110.381187 
L 115.514865 111.079302 
L 117.630444 114.936786 
L 120.727388 117.679869 
L 121.860173 118.374186 
L 126.468449 122.585665 
L 127.904072 123.603591 
L 128.809728 124.069254 
L 130.093932 124.558466 
L 136.36353 126.245641 
L 136.666368 126.358068 
L 139.611894 127.587176 
L 142.708838 128.63017 
L 143.313085 128.714491 
L 144.29588 128.709933 
L 146.788577 128.03005 
L 150.489769 126.639137 
L 157.515034 124.831179 
L 160.15915 123.60435 
L 165.748792 120.299129 
L 171.716982 117.407156 
L 181.159235 113.090846 
L 190.147231 108.639318 
L 198.910956 103.943185 
L 202.687857 102.331215 
L 214.622807 97.751308 
L 229.503283 91.039833 
L 236.378557 88.268643 
L 245.82081 84.368619 
L 250.579077 82.588008 
L 259.039964 79.574491 
L 265.082435 77.245416 
L 278.377298 72.9838 
L 282.759875 71.93017 
L 305.421281 67.425468 
L 314.636406 65.706388 
L 322.493046 64.410432 
L 338.657725 62.453583 
L 343.71883 62.069202 
L 359.884938 62.047172 
L 364.493215 61.959813 
L 371.139932 61.719764 
L 378.392325 61.712168 
L 408.003287 60.761091 
L 414.72 60.873518 
L 414.72 60.873518 
" style="fill:none;stroke:#ff7f0e;stroke-dasharray:5.55,2.4;stroke-dashoffset:0;stroke-width:1.5;"/>
   </g>
   <g id="line2d_29">
    <path clip-path="url(#pa60b588aed)" d="M 57.6 53.568 
L 70.796298 63.412256 
L 78.3501 63.375034 
L 78.802929 63.359081 
L 93.156296 63.21171 
L 99.803013 63.367437 
L 100.48297 64.92927 
L 101.842883 69.476513 
L 102.748539 73.388691 
L 103.882752 78.961457 
L 108.491028 103.087823 
L 111.058007 115.286983 
L 113.022167 123.585359 
L 114.004961 127.265846 
L 115.514865 132.039463 
L 117.630444 136.458326 
L 120.727388 139.2204 
L 121.860173 139.990681 
L 124.20288 142.148076 
L 127.904072 145.893133 
L 130.093932 147.692735 
L 133.190876 149.591091 
L 139.611894 152.825665 
L 142.708838 153.63013 
L 144.29588 153.598985 
L 146.788577 153.152313 
L 150.489769 151.968784 
L 152.982467 150.96833 
L 157.515034 148.870946 
L 163.256095 145.930355 
L 165.748792 144.50298 
L 173.075466 139.88509 
L 185.616092 131.892092 
L 193.774141 127.398784 
L 193.774141 127.398784 
L 198.910956 123.838322 
L 202.687857 120.904568 
L 207.069005 118.159965 
L 214.622807 114.281211 
L 216.812667 112.965504 
L 221.572362 109.787144 
L 225.500682 107.41173 
L 229.503283 105.324222 
L 236.378557 102.014443 
L 245.82081 96.605761 
L 250.579077 93.998655 
L 257.227223 90.112305 
L 259.039964 89.339744 
L 265.082435 87.076758 
L 271.427743 83.919668 
L 278.377298 80.884121 
L 282.759875 79.309375 
L 287.518141 77.846296 
L 307.385441 72.509781 
L 312.219418 70.615982 
L 314.636406 69.885962 
L 324.985743 68.078764 
L 328.838354 67.108695 
L 331.48247 66.702285 
L 343.341711 65.596999 
L 343.71883 65.571171 
L 349.988429 65.356951 
L 356.939412 65.35999 
L 364.493215 64.998398 
L 371.139932 64.636806 
L 378.392325 64.396758 
L 391.687188 64.093659 
L 400.750894 63.546714 
L 411.704479 63.461633 
L 414.72 63.31806 
L 414.72 63.31806 
" style="fill:none;stroke:#2ca02c;stroke-dasharray:5.55,2.4;stroke-dashoffset:0;stroke-width:1.5;"/>
   </g>
   <g id="line2d_30">
    <path clip-path="url(#pa60b588aed)" d="M 57.6 53.568 
L 57.91998 53.568 
L 58.249958 53.568 
L 58.414234 53.568 
L 58.645647 53.56876 
L 64.839537 53.702457 
L 67.479368 53.758671 
L 67.79649 53.765508 
L 75.060311 53.931871 
L 75.55028 53.943265 
L 76.423081 53.963016 
L 82.961234 55.120717 
L 82.969805 55.123756 
L 85.928187 56.011782 
L 85.929615 56.012542 
L 86.595287 56.212329 
L 88.245181 56.707618 
L 90.022211 57.24089 
L 90.722166 57.535633 
L 94.197658 58.998711 
L 95.531858 59.56009 
L 97.344599 60.322775 
L 98.657372 61.34222 
L 100.315837 62.63058 
L 100.495826 62.769596 
L 100.642959 62.884302 
L 102.054298 63.980472 
L 103.149942 65.20882 
L 104.302725 66.500978 
L 106.626862 69.105046 
L 107.54966 70.139684 
L 108.97814 72.524973 
L 110.430904 74.951284 
L 112.973599 76.985617 
L 114.807767 78.452494 
L 114.919188 78.541372 
L 114.9549 78.569479 
L 115.777705 79.228092 
L 115.796275 79.242526 
L 116.449091 79.764403 
L 121.153075 78.804969 
L 123.170089 79.586645 
L 126.122757 80.731432 
L 127.955497 80.619764 
L 135.533583 80.159419 
L 143.604495 79.728699 
L 144.575862 79.677043 
L 146.251469 79.587405 
L 157.63074 80.128273 
L 158.086426 80.150303 
L 158.102139 80.151063 
L 158.540682 80.171573 
L 165.597373 79.213659 
L 167.318692 79.014632 
L 171.961252 78.477562 
L 172.91262 78.367413 
L 173.39116 78.311959 
L 175.531023 78.064314 
L 185.62752 76.766079 
L 190.431498 76.148486 
L 198.063867 74.793277 
L 198.899528 74.645146 
L 203.570657 73.815613 
L 206.637604 73.271706 
L 211.058749 72.48851 
L 213.371459 72.079061 
L 214.924216 71.803309 
L 217.801175 71.294346 
L 221.798062 70.586356 
L 228.247649 68.991099 
L 229.474714 68.688 
L 235.564324 67.181621 
L 239.594066 66.184965 
L 241.805353 65.63802 
L 244.27948 65.026505 
L 247.412137 64.251666 
L 248.713482 64.097457 
L 252.83179 63.611284 
L 255.515904 63.293752 
L 256.280141 63.179045 
L 258.260014 62.882023 
L 263.521106 62.092751 
L 266.322355 61.672666 
L 267.016596 61.568595 
L 270.266388 61.289045 
L 271.652014 61.169781 
L 273.56332 61.005697 
L 278.500147 60.580295 
L 280.3486 60.421529 
L 280.635725 60.401778 
L 285.412562 60.072851 
L 285.628262 60.057658 
L 293.969157 59.483366 
L 294.204856 59.466654 
L 299.404524 59.201537 
L 300.430172 59.149121 
L 308.785352 58.7222 
L 309.105331 58.705488 
L 313.595044 58.599897 
L 320.47746 58.437333 
L 325.052882 58.329463 
L 326.401367 58.238305 
L 329.886858 58.002815 
L 339.169121 57.375347 
L 343.693117 57.328249 
L 344.020239 57.325211 
L 347.005763 57.294065 
L 356.946555 57.192273 
L 359.994931 56.861067 
L 362.463345 56.593671 
L 364.004675 56.426549 
L 366.433091 56.428068 
L 375.508224 56.432626 
L 377.943782 56.3164 
L 382.059233 56.119652 
L 389.814451 55.749704 
L 391.454346 55.671461 
L 394.245596 55.467875 
L 399.296701 55.098687 
L 399.51383 55.102486 
L 407.254764 55.24226 
L 410.277427 55.296955 
L 413.414369 54.721903 
L 414.007188 54.612514 
L 414.500014 54.522116 
L 414.72 54.489451 
" style="fill:none;stroke:#d62728;stroke-linecap:square;stroke-width:1.5;"/>
   </g>
   <g id="line2d_31">
    <path clip-path="url(#pa60b588aed)" d="M 57.6 53.568 
L 57.91998 53.568 
L 58.249958 53.568 
L 58.414234 53.576356 
L 58.645647 53.658398 
L 64.839537 55.859093 
L 67.479368 56.797256 
L 67.79649 56.909684 
L 75.060311 59.490962 
L 75.55028 59.665681 
L 76.423081 59.975617 
L 82.961234 62.298615 
L 82.969805 62.302413 
L 85.928187 63.353764 
L 85.929615 63.359841 
L 86.595287 65.835528 
L 88.245181 71.966633 
L 90.022211 78.568719 
L 90.722166 81.172027 
L 94.197658 94.392912 
L 95.531858 99.468868 
L 97.344599 106.363418 
L 98.657372 111.353535 
L 100.315837 119.354129 
L 100.495826 120.218607 
L 100.642959 120.928876 
L 102.054298 135.512566 
L 103.149942 146.834334 
L 104.302725 158.744069 
L 106.626862 183.465239 
L 107.54966 193.292783 
L 108.97814 208.48267 
L 110.430904 223.938434 
L 112.973599 250.997035 
L 114.807767 270.508551 
L 114.919188 271.694359 
L 114.9549 272.066585 
L 115.777705 272.067345 
L 115.796275 272.052152 
L 116.449091 271.512043 
L 121.153075 267.613539 
L 123.170089 265.943076 
L 126.122757 263.497015 
L 127.955497 261.977723 
L 135.533583 255.699246 
L 143.604495 249.01208 
L 144.575862 248.207614 
L 146.251469 248.854833 
L 157.63074 253.250146 
L 158.086426 253.426384 
L 158.102139 253.41423 
L 158.540682 253.09214 
L 165.597373 247.898438 
L 167.318692 246.632108 
L 171.961252 243.215219 
L 172.91262 242.515584 
L 173.39116 242.163109 
L 175.531023 239.400275 
L 185.62752 226.361706 
L 190.431498 220.159194 
L 198.063867 210.302023 
L 198.899528 209.196738 
L 203.570657 203.011698 
L 206.637604 198.952148 
L 211.058749 193.099833 
L 213.371459 189.774101 
L 214.924216 187.541501 
L 217.801175 183.407506 
L 221.798062 176.43851 
L 228.247649 165.191947 
L 229.474714 163.052783 
L 235.564324 152.761095 
L 239.594066 145.953145 
L 241.805353 142.214166 
L 244.27948 138.743342 
L 247.412137 134.348028 
L 248.713482 132.522598 
L 252.83179 127.049346 
L 255.515904 123.482047 
L 256.280141 122.46716 
L 258.260014 120.944069 
L 263.521106 116.895914 
L 266.322355 114.280452 
L 267.016596 113.631714 
L 270.266388 110.597686 
L 271.652014 109.692188 
L 273.56332 108.44181 
L 278.500147 105.212554 
L 280.3486 104.003957 
L 280.635725 103.816324 
L 285.412562 101.300375 
L 285.628262 101.187188 
L 293.969157 96.794154 
L 294.204856 96.698438 
L 299.404524 94.573707 
L 300.430172 94.155142 
L 308.785352 90.742051 
L 309.105331 90.630383 
L 313.595044 89.057916 
L 320.47746 86.646039 
L 325.052882 85.043945 
L 326.401367 84.570685 
L 329.886858 83.757863 
L 339.169121 81.592112 
L 343.693117 80.536203 
L 344.020239 80.459479 
L 347.005763 80.009768 
L 356.946555 78.513265 
L 359.994931 78.053679 
L 362.463345 77.682212 
L 364.004675 77.492301 
L 366.433091 77.193 
L 375.508224 76.07556 
L 377.943782 75.7755 
L 382.059233 75.268816 
L 389.814451 74.034391 
L 391.454346 73.773832 
L 394.245596 73.329439 
L 399.296701 72.525733 
L 399.51383 72.490789 
L 407.254764 71.868639 
L 410.277427 71.626312 
L 413.414369 71.374109 
L 414.007188 71.326252 
L 414.500014 71.28675 
L 414.72 71.272317 
" style="fill:none;stroke:#9467bd;stroke-linecap:square;stroke-width:1.5;"/>
   </g>
   <g id="line2d_32">
    <path clip-path="url(#pa60b588aed)" d="M 57.6 53.568 
L 57.91998 53.596107 
L 58.249958 53.707775 
L 58.414234 53.763989 
L 58.645647 53.842992 
L 64.839537 55.949491 
L 67.479368 57.174801 
L 67.79649 57.322172 
L 75.060311 60.696521 
L 75.55028 60.923655 
L 76.423081 61.271573 
L 82.961234 63.869564 
L 82.969805 63.873362 
L 85.928187 65.049294 
L 85.929615 65.050054 
L 86.595287 67.909363 
L 88.245181 74.989266 
L 90.022211 82.114748 
L 90.722166 84.92392 
L 94.197658 98.867988 
L 95.531858 104.288064 
L 97.344599 111.649797 
L 98.657372 116.977956 
L 100.315837 123.716018 
L 100.495826 125.932666 
L 100.642959 127.753539 
L 102.054298 145.199576 
L 103.149942 158.743309 
L 104.302725 171.569937 
L 106.626862 197.42298 
L 107.54966 207.700994 
L 108.97814 223.585958 
L 110.430904 239.66843 
L 112.973599 267.823961 
L 114.807767 290.609551 
L 114.919188 290.636899 
L 114.9549 290.646014 
L 115.777705 290.84808 
L 115.796275 290.852638 
L 116.449091 290.250998 
L 121.153075 285.905822 
L 123.170089 284.043928 
L 126.122757 281.317558 
L 127.955497 279.624306 
L 135.533583 272.627204 
L 143.604495 265.174314 
L 144.575862 265.499443 
L 146.251469 266.060822 
L 157.63074 269.871967 
L 158.086426 270.024656 
L 158.102139 270.029973 
L 158.540682 269.707883 
L 165.597373 264.514182 
L 167.318692 263.247851 
L 171.961252 258.623125 
L 172.91262 257.675846 
L 173.39116 257.019511 
L 175.531023 254.087277 
L 185.62752 240.2488 
L 190.431498 233.664945 
L 198.063867 223.203096 
L 198.899528 222.058309 
L 203.570657 215.2929 
L 206.637604 210.852767 
L 211.058749 204.450468 
L 213.371459 201.099668 
L 214.924216 198.208454 
L 217.801175 192.853707 
L 221.798062 185.412972 
L 228.247649 173.406002 
L 229.474714 171.122506 
L 235.564324 159.784025 
L 239.594066 153.231316 
L 241.805353 149.632871 
L 244.27948 145.609025 
L 247.412137 141.082293 
L 248.713482 139.202168 
L 252.83179 133.251859 
L 255.515904 129.777236 
L 256.280141 128.788177 
L 258.260014 126.22513 
L 263.521106 121.325412 
L 266.322355 118.715267 
L 267.016596 118.157686 
L 270.266388 115.548301 
L 271.652014 114.436939 
L 273.56332 112.902453 
L 278.500147 109.875263 
L 280.3486 108.449407 
L 280.635725 108.229109 
L 285.412562 104.546344 
L 285.628262 104.436195 
L 293.969157 100.177618 
L 294.204856 100.057594 
L 299.404524 97.40339 
L 300.430172 97.014451 
L 308.785352 93.847486 
L 309.105331 93.725942 
L 313.595044 92.024334 
L 320.47746 89.415709 
L 325.052882 88.175966 
L 326.401367 87.810576 
L 329.886858 86.866336 
L 339.169121 84.351907 
L 343.693117 83.125838 
L 344.020239 83.072662 
L 347.005763 82.585729 
L 356.946555 80.965404 
L 359.994931 80.468595 
L 362.463345 80.002932 
L 364.004675 79.712747 
L 366.433091 79.25468 
L 375.508224 77.543957 
L 377.943782 77.084371 
L 382.059233 76.567051 
L 389.814451 75.590906 
L 391.454346 75.384282 
L 394.245596 75.033326 
L 399.296701 74.424089 
L 399.51383 74.398261 
L 407.254764 73.464656 
L 410.277427 73.086352 
L 413.414369 72.694375 
L 414.007188 72.619929 
L 414.500014 72.558398 
L 414.72 72.535609 
" style="fill:none;stroke:#8c564b;stroke-linecap:square;stroke-width:1.5;"/>
   </g>
   <g id="line2d_33">
    <path clip-path="url(#pa60b588aed)" d="M 57.6 53.568 
L 57.91998 53.568 
L 58.249958 53.568 
L 58.414234 53.568 
L 58.645647 53.576356 
L 64.839537 58.215516 
L 67.479368 60.192116 
L 67.79649 60.385066 
L 75.060311 64.80165 
L 75.55028 65.102469 
L 76.423081 65.63878 
L 82.961234 69.648193 
L 82.969805 69.65427 
L 85.928187 71.93017 
L 85.929615 71.93093 
L 86.595287 72.443691 
L 88.245181 80.497461 
L 90.022211 89.170343 
L 90.722166 92.589511 
L 94.197658 109.562289 
L 95.531858 116.078535 
L 97.344599 124.312341 
L 98.657372 130.271766 
L 100.315837 137.808977 
L 100.495826 138.623318 
L 100.642959 139.546288 
L 102.054298 148.392369 
L 103.149942 155.260331 
L 104.302725 162.484568 
L 106.626862 177.045468 
L 107.54966 183.660468 
L 108.97814 193.885307 
L 110.430904 204.289423 
L 112.973599 222.503462 
L 114.807767 235.637747 
L 114.919188 236.435375 
L 114.9549 236.502224 
L 115.777705 238.075452 
L 115.796275 238.111155 
L 116.449091 239.356215 
L 121.153075 248.343591 
L 123.170089 252.195757 
L 126.122757 258.402827 
L 127.955497 262.257273 
L 135.533583 269.905391 
L 143.604495 278.051838 
L 144.575862 279.032542 
L 146.251469 280.724274 
L 157.63074 292.208607 
L 158.086426 292.312678 
L 158.102139 292.316477 
L 158.540682 292.41675 
L 165.597373 294.031758 
L 167.318692 294.426014 
L 171.961252 295.488 
L 172.91262 295.244154 
L 173.39116 295.121091 
L 175.531023 294.571867 
L 185.62752 291.980713 
L 190.431498 289.680504 
L 198.063867 286.023567 
L 198.899528 285.623993 
L 203.570657 283.386075 
L 206.637604 280.638434 
L 211.058749 276.676879 
L 213.371459 274.603044 
L 214.924216 273.211372 
L 217.801175 269.419218 
L 221.798062 264.149551 
L 228.247649 255.645311 
L 229.474714 253.641364 
L 235.564324 243.690757 
L 239.594066 237.108422 
L 241.805353 233.103567 
L 244.27948 228.625452 
L 247.412137 222.954692 
L 248.713482 220.599029 
L 252.83179 213.14386 
L 255.515904 208.284403 
L 256.280141 206.901846 
L 258.260014 203.317835 
L 263.521106 193.79339 
L 266.322355 188.721991 
L 267.016596 187.463257 
L 270.266388 181.580556 
L 271.652014 179.073723 
L 273.56332 175.991838 
L 278.500147 168.030745 
L 280.3486 165.050653 
L 280.635725 164.588788 
L 285.412562 156.886734 
L 285.628262 156.538816 
L 293.969157 144.796963 
L 294.204856 144.465757 
L 299.404524 137.145046 
L 300.430172 135.700958 
L 308.785352 128.398478 
L 309.105331 128.118928 
L 313.595044 124.194596 
L 320.47746 118.822377 
L 325.052882 115.25128 
L 326.401367 114.19841 
L 329.886858 111.478117 
L 339.169121 106.686268 
L 343.693117 104.350355 
L 344.020239 104.181714 
L 347.005763 102.640391 
L 356.946555 99.172606 
L 359.994931 98.109101 
L 362.463345 97.248422 
L 364.004675 96.710592 
L 366.433091 95.863587 
L 375.508224 93.517039 
L 377.943782 92.886533 
L 382.059233 91.822268 
L 389.814451 89.816802 
L 391.454346 89.481798 
L 394.245596 88.911304 
L 399.296701 87.880464 
L 399.51383 87.835645 
L 407.254764 86.25558 
L 410.277427 85.637988 
L 413.414369 84.997606 
L 414.007188 84.876822 
L 414.500014 84.775789 
L 414.72 84.740086 
" style="fill:none;stroke:#e377c2;stroke-linecap:square;stroke-width:1.5;"/>
   </g>
   <g id="patch_3">
    <path d="M 57.6 307.584 
L 57.6 41.472 
" style="fill:none;stroke:#000000;stroke-linecap:square;stroke-linejoin:miter;stroke-width:0.8;"/>
   </g>
   <g id="patch_4">
    <path d="M 414.72 307.584 
L 414.72 41.472 
" style="fill:none;stroke:#000000;stroke-linecap:square;stroke-linejoin:miter;stroke-width:0.8;"/>
   </g>
   <g id="patch_5">
    <path d="M 57.6 307.584 
L 414.72 307.584 
" style="fill:none;stroke:#000000;stroke-linecap:square;stroke-linejoin:miter;stroke-width:0.8;"/>
   </g>
   <g id="patch_6">
    <path d="M 57.6 41.472 
L 414.72 41.472 
" style="fill:none;stroke:#000000;stroke-linecap:square;stroke-linejoin:miter;stroke-width:0.8;"/>
   </g>
   <g id="legend_1">
    <g id="patch_7">
     <path d="M 295.745 302.584 
L 407.72 302.584 
Q 409.72 302.584 409.72 300.584 
L 409.72 196.89025 
Q 409.72 194.89025 407.72 194.89025 
L 295.745 194.89025 
Q 293.745 194.89025 293.745 196.89025 
L 293.745 300.584 
Q 293.745 302.584 295.745 302.584 
z
" style="fill:#ffffff;opacity:0.8;stroke:#cccccc;stroke-linejoin:miter;"/>
    </g>
    <g id="line2d_34">
     <path d="M 297.745 202.988687 
L 317.745 202.988687 
" style="fill:none;stroke:#1f77b4;stroke-dasharray:5.55,2.4;stroke-dashoffset:0;stroke-width:1.5;"/>
    </g>
    <g id="line2d_35"/>
    <g id="text_16">
     <!-- dena_mean -->
     <defs>
      <path d="M 34.28125 27.484375 
Q 23.390625 27.484375 19.1875 25 
Q 14.984375 22.515625 14.984375 16.5 
Q 14.984375 11.71875 18.140625 8.90625 
Q 21.296875 6.109375 26.703125 6.109375 
Q 34.1875 6.109375 38.703125 11.40625 
Q 43.21875 16.703125 43.21875 25.484375 
L 43.21875 27.484375 
z
M 52.203125 31.203125 
L 52.203125 0 
L 43.21875 0 
L 43.21875 8.296875 
Q 40.140625 3.328125 35.546875 0.953125 
Q 30.953125 -1.421875 24.3125 -1.421875 
Q 15.921875 -1.421875 10.953125 3.296875 
Q 6 8.015625 6 15.921875 
Q 6 25.140625 12.171875 29.828125 
Q 18.359375 34.515625 30.609375 34.515625 
L 43.21875 34.515625 
L 43.21875 35.40625 
Q 43.21875 41.609375 39.140625 45 
Q 35.0625 48.390625 27.6875 48.390625 
Q 23 48.390625 18.546875 47.265625 
Q 14.109375 46.140625 10.015625 43.890625 
L 10.015625 52.203125 
Q 14.9375 54.109375 19.578125 55.046875 
Q 24.21875 56 28.609375 56 
Q 40.484375 56 46.34375 49.84375 
Q 52.203125 43.703125 52.203125 31.203125 
z
" id="DejaVuSans-97"/>
      <path d="M 50.984375 -16.609375 
L 50.984375 -23.578125 
L -0.984375 -23.578125 
L -0.984375 -16.609375 
z
" id="DejaVuSans-95"/>
     </defs>
     <g transform="translate(325.745 206.488687)scale(0.1 -0.1)">
      <use xlink:href="#DejaVuSans-100"/>
      <use x="63.476562" xlink:href="#DejaVuSans-101"/>
      <use x="125" xlink:href="#DejaVuSans-110"/>
      <use x="188.378906" xlink:href="#DejaVuSans-97"/>
      <use x="249.658203" xlink:href="#DejaVuSans-95"/>
      <use x="299.658203" xlink:href="#DejaVuSans-109"/>
      <use x="397.070312" xlink:href="#DejaVuSans-101"/>
      <use x="458.59375" xlink:href="#DejaVuSans-97"/>
      <use x="519.873047" xlink:href="#DejaVuSans-110"/>
     </g>
    </g>
    <g id="line2d_36">
     <path d="M 297.745 217.944937 
L 317.745 217.944937 
" style="fill:none;stroke:#ff7f0e;stroke-dasharray:5.55,2.4;stroke-dashoffset:0;stroke-width:1.5;"/>
    </g>
    <g id="line2d_37"/>
    <g id="text_17">
     <!-- dena_extreme1 -->
     <defs>
      <path d="M 54.890625 54.6875 
L 35.109375 28.078125 
L 55.90625 0 
L 45.3125 0 
L 29.390625 21.484375 
L 13.484375 0 
L 2.875 0 
L 24.125 28.609375 
L 4.6875 54.6875 
L 15.28125 54.6875 
L 29.78125 35.203125 
L 44.28125 54.6875 
z
" id="DejaVuSans-120"/>
      <path d="M 18.3125 70.21875 
L 18.3125 54.6875 
L 36.8125 54.6875 
L 36.8125 47.703125 
L 18.3125 47.703125 
L 18.3125 18.015625 
Q 18.3125 11.328125 20.140625 9.421875 
Q 21.96875 7.515625 27.59375 7.515625 
L 36.8125 7.515625 
L 36.8125 0 
L 27.59375 0 
Q 17.1875 0 13.234375 3.875 
Q 9.28125 7.765625 9.28125 18.015625 
L 9.28125 47.703125 
L 2.6875 47.703125 
L 2.6875 54.6875 
L 9.28125 54.6875 
L 9.28125 70.21875 
z
" id="DejaVuSans-116"/>
      <path d="M 41.109375 46.296875 
Q 39.59375 47.171875 37.8125 47.578125 
Q 36.03125 48 33.890625 48 
Q 26.265625 48 22.1875 43.046875 
Q 18.109375 38.09375 18.109375 28.8125 
L 18.109375 0 
L 9.078125 0 
L 9.078125 54.6875 
L 18.109375 54.6875 
L 18.109375 46.1875 
Q 20.953125 51.171875 25.484375 53.578125 
Q 30.03125 56 36.53125 56 
Q 37.453125 56 38.578125 55.875 
Q 39.703125 55.765625 41.0625 55.515625 
z
" id="DejaVuSans-114"/>
     </defs>
     <g transform="translate(325.745 221.444937)scale(0.1 -0.1)">
      <use xlink:href="#DejaVuSans-100"/>
      <use x="63.476562" xlink:href="#DejaVuSans-101"/>
      <use x="125" xlink:href="#DejaVuSans-110"/>
      <use x="188.378906" xlink:href="#DejaVuSans-97"/>
      <use x="249.658203" xlink:href="#DejaVuSans-95"/>
      <use x="299.658203" xlink:href="#DejaVuSans-101"/>
      <use x="361.166016" xlink:href="#DejaVuSans-120"/>
      <use x="420.345703" xlink:href="#DejaVuSans-116"/>
      <use x="459.554688" xlink:href="#DejaVuSans-114"/>
      <use x="500.636719" xlink:href="#DejaVuSans-101"/>
      <use x="562.160156" xlink:href="#DejaVuSans-109"/>
      <use x="659.572266" xlink:href="#DejaVuSans-101"/>
      <use x="721.095703" xlink:href="#DejaVuSans-49"/>
     </g>
    </g>
    <g id="line2d_38">
     <path d="M 297.745 232.901187 
L 317.745 232.901187 
" style="fill:none;stroke:#2ca02c;stroke-dasharray:5.55,2.4;stroke-dashoffset:0;stroke-width:1.5;"/>
    </g>
    <g id="line2d_39"/>
    <g id="text_18">
     <!-- dena_extreme2 -->
     <g transform="translate(325.745 236.401187)scale(0.1 -0.1)">
      <use xlink:href="#DejaVuSans-100"/>
      <use x="63.476562" xlink:href="#DejaVuSans-101"/>
      <use x="125" xlink:href="#DejaVuSans-110"/>
      <use x="188.378906" xlink:href="#DejaVuSans-97"/>
      <use x="249.658203" xlink:href="#DejaVuSans-95"/>
      <use x="299.658203" xlink:href="#DejaVuSans-101"/>
      <use x="361.166016" xlink:href="#DejaVuSans-120"/>
      <use x="420.345703" xlink:href="#DejaVuSans-116"/>
      <use x="459.554688" xlink:href="#DejaVuSans-114"/>
      <use x="500.636719" xlink:href="#DejaVuSans-101"/>
      <use x="562.160156" xlink:href="#DejaVuSans-109"/>
      <use x="659.572266" xlink:href="#DejaVuSans-101"/>
      <use x="721.095703" xlink:href="#DejaVuSans-50"/>
     </g>
    </g>
    <g id="line2d_40">
     <path d="M 297.745 247.857437 
L 317.745 247.857437 
" style="fill:none;stroke:#d62728;stroke-linecap:square;stroke-width:1.5;"/>
    </g>
    <g id="line2d_41"/>
    <g id="text_19">
     <!-- knorr_mean -->
     <defs>
      <path d="M 9.078125 75.984375 
L 18.109375 75.984375 
L 18.109375 31.109375 
L 44.921875 54.6875 
L 56.390625 54.6875 
L 27.390625 29.109375 
L 57.625 0 
L 45.90625 0 
L 18.109375 26.703125 
L 18.109375 0 
L 9.078125 0 
z
" id="DejaVuSans-107"/>
      <path d="M 30.609375 48.390625 
Q 23.390625 48.390625 19.1875 42.75 
Q 14.984375 37.109375 14.984375 27.296875 
Q 14.984375 17.484375 19.15625 11.84375 
Q 23.34375 6.203125 30.609375 6.203125 
Q 37.796875 6.203125 41.984375 11.859375 
Q 46.1875 17.53125 46.1875 27.296875 
Q 46.1875 37.015625 41.984375 42.703125 
Q 37.796875 48.390625 30.609375 48.390625 
z
M 30.609375 56 
Q 42.328125 56 49.015625 48.375 
Q 55.71875 40.765625 55.71875 27.296875 
Q 55.71875 13.875 49.015625 6.21875 
Q 42.328125 -1.421875 30.609375 -1.421875 
Q 18.84375 -1.421875 12.171875 6.21875 
Q 5.515625 13.875 5.515625 27.296875 
Q 5.515625 40.765625 12.171875 48.375 
Q 18.84375 56 30.609375 56 
z
" id="DejaVuSans-111"/>
     </defs>
     <g transform="translate(325.745 251.357437)scale(0.1 -0.1)">
      <use xlink:href="#DejaVuSans-107"/>
      <use x="57.910156" xlink:href="#DejaVuSans-110"/>
      <use x="121.289062" xlink:href="#DejaVuSans-111"/>
      <use x="182.470703" xlink:href="#DejaVuSans-114"/>
      <use x="223.568359" xlink:href="#DejaVuSans-114"/>
      <use x="264.681641" xlink:href="#DejaVuSans-95"/>
      <use x="314.681641" xlink:href="#DejaVuSans-109"/>
      <use x="412.09375" xlink:href="#DejaVuSans-101"/>
      <use x="473.617188" xlink:href="#DejaVuSans-97"/>
      <use x="534.896484" xlink:href="#DejaVuSans-110"/>
     </g>
    </g>
    <g id="line2d_42">
     <path d="M 297.745 262.813687 
L 317.745 262.813687 
" style="fill:none;stroke:#9467bd;stroke-linecap:square;stroke-width:1.5;"/>
    </g>
    <g id="line2d_43"/>
    <g id="text_20">
     <!-- knorr_extreme1 -->
     <g transform="translate(325.745 266.313687)scale(0.1 -0.1)">
      <use xlink:href="#DejaVuSans-107"/>
      <use x="57.910156" xlink:href="#DejaVuSans-110"/>
      <use x="121.289062" xlink:href="#DejaVuSans-111"/>
      <use x="182.470703" xlink:href="#DejaVuSans-114"/>
      <use x="223.568359" xlink:href="#DejaVuSans-114"/>
      <use x="264.681641" xlink:href="#DejaVuSans-95"/>
      <use x="314.681641" xlink:href="#DejaVuSans-101"/>
      <use x="376.189453" xlink:href="#DejaVuSans-120"/>
      <use x="435.369141" xlink:href="#DejaVuSans-116"/>
      <use x="474.578125" xlink:href="#DejaVuSans-114"/>
      <use x="515.660156" xlink:href="#DejaVuSans-101"/>
      <use x="577.183594" xlink:href="#DejaVuSans-109"/>
      <use x="674.595703" xlink:href="#DejaVuSans-101"/>
      <use x="736.119141" xlink:href="#DejaVuSans-49"/>
     </g>
    </g>
    <g id="line2d_44">
     <path d="M 297.745 277.769937 
L 317.745 277.769937 
" style="fill:none;stroke:#8c564b;stroke-linecap:square;stroke-width:1.5;"/>
    </g>
    <g id="line2d_45"/>
    <g id="text_21">
     <!-- knorr_extreme2 -->
     <g transform="translate(325.745 281.269937)scale(0.1 -0.1)">
      <use xlink:href="#DejaVuSans-107"/>
      <use x="57.910156" xlink:href="#DejaVuSans-110"/>
      <use x="121.289062" xlink:href="#DejaVuSans-111"/>
      <use x="182.470703" xlink:href="#DejaVuSans-114"/>
      <use x="223.568359" xlink:href="#DejaVuSans-114"/>
      <use x="264.681641" xlink:href="#DejaVuSans-95"/>
      <use x="314.681641" xlink:href="#DejaVuSans-101"/>
      <use x="376.189453" xlink:href="#DejaVuSans-120"/>
      <use x="435.369141" xlink:href="#DejaVuSans-116"/>
      <use x="474.578125" xlink:href="#DejaVuSans-114"/>
      <use x="515.660156" xlink:href="#DejaVuSans-101"/>
      <use x="577.183594" xlink:href="#DejaVuSans-109"/>
      <use x="674.595703" xlink:href="#DejaVuSans-101"/>
      <use x="736.119141" xlink:href="#DejaVuSans-50"/>
     </g>
    </g>
    <g id="line2d_46">
     <path d="M 297.745 292.726187 
L 317.745 292.726187 
" style="fill:none;stroke:#e377c2;stroke-linecap:square;stroke-width:1.5;"/>
    </g>
    <g id="line2d_47"/>
    <g id="text_22">
     <!-- knorr_extreme3 -->
     <defs>
      <path d="M 40.578125 39.3125 
Q 47.65625 37.796875 51.625 33 
Q 55.609375 28.21875 55.609375 21.1875 
Q 55.609375 10.40625 48.1875 4.484375 
Q 40.765625 -1.421875 27.09375 -1.421875 
Q 22.515625 -1.421875 17.65625 -0.515625 
Q 12.796875 0.390625 7.625 2.203125 
L 7.625 11.71875 
Q 11.71875 9.328125 16.59375 8.109375 
Q 21.484375 6.890625 26.8125 6.890625 
Q 36.078125 6.890625 40.9375 10.546875 
Q 45.796875 14.203125 45.796875 21.1875 
Q 45.796875 27.640625 41.28125 31.265625 
Q 36.765625 34.90625 28.71875 34.90625 
L 20.21875 34.90625 
L 20.21875 43.015625 
L 29.109375 43.015625 
Q 36.375 43.015625 40.234375 45.921875 
Q 44.09375 48.828125 44.09375 54.296875 
Q 44.09375 59.90625 40.109375 62.90625 
Q 36.140625 65.921875 28.71875 65.921875 
Q 24.65625 65.921875 20.015625 65.03125 
Q 15.375 64.15625 9.8125 62.3125 
L 9.8125 71.09375 
Q 15.4375 72.65625 20.34375 73.4375 
Q 25.25 74.21875 29.59375 74.21875 
Q 40.828125 74.21875 47.359375 69.109375 
Q 53.90625 64.015625 53.90625 55.328125 
Q 53.90625 49.265625 50.4375 45.09375 
Q 46.96875 40.921875 40.578125 39.3125 
z
" id="DejaVuSans-51"/>
     </defs>
     <g transform="translate(325.745 296.226187)scale(0.1 -0.1)">
      <use xlink:href="#DejaVuSans-107"/>
      <use x="57.910156" xlink:href="#DejaVuSans-110"/>
      <use x="121.289062" xlink:href="#DejaVuSans-111"/>
      <use x="182.470703" xlink:href="#DejaVuSans-114"/>
      <use x="223.568359" xlink:href="#DejaVuSans-114"/>
      <use x="264.681641" xlink:href="#DejaVuSans-95"/>
      <use x="314.681641" xlink:href="#DejaVuSans-101"/>
      <use x="376.189453" xlink:href="#DejaVuSans-120"/>
      <use x="435.369141" xlink:href="#DejaVuSans-116"/>
      <use x="474.578125" xlink:href="#DejaVuSans-114"/>
      <use x="515.660156" xlink:href="#DejaVuSans-101"/>
      <use x="577.183594" xlink:href="#DejaVuSans-109"/>
      <use x="674.595703" xlink:href="#DejaVuSans-101"/>
      <use x="736.119141" xlink:href="#DejaVuSans-51"/>
     </g>
    </g>
   </g>
  </g>
 </g>
 <defs>
  <clipPath id="pa60b588aed">
   <rect height="266.112" width="357.12" x="57.6" y="41.472"/>
  </clipPath>
 </defs>
</svg>
